 <svg width="24" height="24" viewBox="0 0 24 24" fill="none" xmlns="http://www.w3.org/2000/svg">
                    <path
                        d="M17.8966 14.3144C16.8621 13.6972 15.7241 13.4915 14.2759 13.4915H9.62069C8.17241 13.4915 7.03448 13.8001 6 14.3144C4.96552 14.9315 4.24138 15.7543 3.72414 16.6801C3.2069 17.7086 3 18.84 3 20.0743V21H4.86207V20.0743C4.86207 19.0457 5.06897 18.2229 5.48276 17.5029C5.89655 16.7829 6.41379 16.2686 7.03448 15.8572C7.75862 15.4458 8.68966 15.2401 9.72414 15.2401H14.2759C15.3103 15.2401 16.2414 15.4458 16.9655 15.8572C17.6897 16.2686 18.2069 16.7829 18.5172 17.5029C18.931 18.2229 19.1379 19.1486 19.1379 20.0743V21H21V20.0743C21 18.84 20.6897 17.6058 20.2759 16.6801C19.6552 15.6515 18.931 14.8286 17.8966 14.3144Z"
                        fill="currentColor"></path>
                    <path
                        d="M9.82751 11.2285C10.4482 11.537 11.1723 11.7428 11.8965 11.7428C13.1379 11.7428 14.1723 11.3313 14.8965 10.6113C15.6206 9.7885 16.0344 8.75994 16.0344 7.42281C16.0344 6.4971 15.8275 5.77711 15.5172 5.15998C15.2068 4.54284 14.6896 4.02856 13.9654 3.61714C13.4482 3.20571 12.7241 3 11.9999 3C10.7585 3 9.72406 3.41142 8.89648 4.13142C8.17234 4.95426 7.75854 5.98282 7.75854 7.31995C7.75854 8.24566 7.96544 8.96565 8.27579 9.68564C8.68958 10.3028 9.20682 10.9199 9.82751 11.2285ZM10.2413 5.46854C10.6551 5.05712 11.2758 4.85141 11.9999 4.85141C12.4137 4.85141 12.8275 4.85141 13.2413 5.05712C13.5516 5.26283 13.862 5.46854 14.0689 5.87997C14.1723 6.29139 14.2758 6.80567 14.2758 7.31995C14.2758 8.24566 14.0689 8.86279 13.6551 9.27422C13.2413 9.68564 12.6206 9.89135 11.8965 9.89135C11.3792 9.89135 11.0689 9.7885 10.6551 9.58278C10.3448 9.47993 10.1379 9.17136 9.93096 8.86279C9.72406 8.45137 9.62061 7.93709 9.62061 7.31995C9.62061 6.4971 9.82751 5.87997 10.2413 5.46854Z"
                        fill="currentColor"></path>
                </svg>