 <svg width="24" height="24" viewBox="0 0 24 24" fill="none" xmlns="http://www.w3.org/2000/svg">
                    <path fill-rule="evenodd" clip-rule="evenodd"
                        d="M5 10C5 7.23858 7.23858 5 10 5C12.7614 5 15 7.23858 15 10C15 12.7614 12.7614 15 10 15C7.23858 15 5 12.7614 5 10ZM10 3C6.13401 3 3 6.13401 3 10C3 13.866 6.13401 17 10 17C11.715 17 13.2859 16.3833 14.5032 15.3595L19.8243 20.2372L21.1757 18.7628L15.8354 13.8676C16.5713 12.7595 17 11.4298 17 10C17 6.13401 13.866 3 10 3Z"
                        fill="currentColor"></path>
 </svg>                        